<?xml version="1.0" encoding="UTF-8"?>
<svg xmlns="http://www.w3.org/2000/svg" xmlns:xlink="http://www.w3.org/1999/xlink" width="40pt" height="40pt" viewBox="0 0 40 40" version="1.1">
<defs>
<linearGradient id="linear0" gradientUnits="userSpaceOnUse" x1="4.6254" y1="24.8995" x2="45.684" y2="24.8995" gradientTransform="matrix(0.8,0,0,0.8,0,0)">
<stop offset="0.00837989" style="stop-color:rgb(98.431373%,0.392157%,0.392157%);stop-opacity:1;"/>
<stop offset="1" style="stop-color:rgb(25.098039%,23.921569%,23.921569%);stop-opacity:1;"/>
</linearGradient>
</defs>
<g id="surface1">
<path style=" stroke:none;fill-rule:nonzero;fill:url(#linear0);" d="M 20.160156 3.519531 C 11.121094 3.519531 3.761719 10.878906 3.761719 19.921875 C 3.761719 28.960938 11.121094 36.320312 20.160156 36.320312 C 29.199219 36.320312 36.558594 28.960938 36.558594 19.921875 C 36.558594 10.878906 29.199219 3.519531 20.160156 3.519531 Z M 20.160156 34.71875 C 12 34.71875 5.359375 28.078125 5.359375 19.921875 C 5.359375 11.761719 11.921875 5.121094 20.160156 5.121094 C 28.398438 5.121094 34.960938 11.761719 34.960938 19.921875 C 34.960938 28.078125 28.320312 34.71875 20.160156 34.71875 Z M 26.878906 20.320312 C 27.199219 20.640625 27.199219 21.121094 26.878906 21.441406 C 26.71875 21.601562 26.480469 21.679688 26.320312 21.679688 C 26.160156 21.679688 25.921875 21.601562 25.761719 21.441406 L 20.960938 16.640625 L 20.960938 27.28125 C 20.960938 27.761719 20.640625 28.078125 20.160156 28.078125 C 19.679688 28.078125 19.359375 27.761719 19.359375 27.28125 L 19.359375 16.398438 L 14.558594 21.199219 C 14.238281 21.519531 13.761719 21.519531 13.441406 21.199219 C 13.121094 20.878906 13.121094 20.398438 13.441406 20.078125 L 19.519531 14 C 19.839844 13.679688 20.320312 13.679688 20.640625 14 Z M 26.878906 20.320312 "/>
</g>
</svg>
